# xmcd CD database file
#
# Track frame offsets:
#	150
#	32517
#	50172
#	82085
#	96545
#	106382
#	141375
#	173175
#	189542
#	200692
#	243385
#	257230
#
# Disc length: 3769 seconds
#
# Revision: 4
# Processed by: cddbd v1.4PL0 Copyright (c) Steve Scherf et al.
# Submitted via: CDex 1.50
#
DISCID=b60eb70c
DTITLE=Various Artist - Jazz on a Sunny Afternoon
DYEAR=1900
DGENRE=Jazz
TTITLE0=Herbie hancock - Watermelon Man
TTITLE1=Jim Hall - Tangerine
TTITLE2=Lee Morgan - Candy
TTITLE3=Sonny Criss - Anything Goes
TTITLE4=Wanda de SahAgua de Beber
TTITLE5=Grant Greeen - Tico Tico
TTITLE6=Horace Solver - Senor Blues
TTITLE7=Chico Hamilton - In A Mellow Tone
TTITLE8=Bud Shank - Take Five
TTITLE9=John Lewis - Almost Like Being in Love
TTITLE10=Chet Baker - But not for Me
TTITLE11=Hank Mobley - Remember
EXTD=
EXTT0=
EXTT1=
EXTT2=
EXTT3=
EXTT4=
EXTT5=
EXTT6=
EXTT7=
EXTT8=
EXTT9=
EXTT10=
EXTT11=
PLAYORDER=
